<svg xmlns="http://www.w3.org/2000/svg" data-name="Layer 1" width="844.499755859375" height="494.2459716796875" style=""><rect id="backgroundrect" width="100%" height="100%" x="0" y="0" fill="none" stroke="none"/><title>chat_bot</title><g class="currentLayer" style=""><title>Layer 1</title><path d="M47.5920179296875,463.0579858398437 a4.77664,4.77664 0 0 0 -2.81646,0.99092 c-2.40045,-6.34374 -6.11652,-10.42042 -10.29133,-10.42042 s-7.8908700000000005,4.07668 -10.29132,10.42042 a4.77669,4.77669 0 0 0 -2.81646,-0.99092 c-4.74294,0 -8.58786,8.02128 -8.58786,17.916 H56.17987792968751 C56.17987792968751,471.0792458398438 52.334957929687505,463.0579858398437 47.5920179296875,463.0579858398437 z" fill="#0098c8" id="svg_1" class=""/><rect y="479.97357177734375" width="220" height="2" fill="#3f3d56" id="svg_2" class=""/><path d="M829.5920179296875,421.03198583984374 a4.77664,4.77664 0 0 0 -2.81646,0.99092 c-2.40045,-6.34374 -6.11652,-10.42042 -10.29133,-10.42042 s-7.8908700000000005,4.07668 -10.29132,10.42042 a4.77669,4.77669 0 0 0 -2.81646,-0.99092 c-4.74294,0 -8.58786,8.02128 -8.58786,17.916 H838.1798779296874 C838.1798779296874,429.0532458398437 834.3349579296874,421.03198583984374 829.5920179296875,421.03198583984374 z" fill="#0098c8" id="svg_3" class=""/><path d="M561.4388461962891,83.44994451934815 H351.94912619628906 v-4.31776 H256.9583361962891 v4.31776 H46.605066196289044 a14.17039,14.17039 0 0 0 -14.1704,14.1704 V384.4761845193482 a14.17044,14.17044 0 0 0 14.1704,14.17046 H561.4388461962891 a14.17044,14.17044 0 0 0 14.1704,-14.17046 V97.62034451934812 A14.17039,14.17039 0 0 0 561.4388461962891,83.44994451934815 z" fill="#3f3d56" id="svg_4" class="selected"/><path d="M561.4388461962891,83.44994451934815 H351.94912619628906 v-4.31776 H256.9583361962891 v4.31776 H46.605066196289044 a14.17039,14.17039 0 0 0 -14.1704,14.1704 V384.4761845193482 a14.17044,14.17044 0 0 0 14.1704,14.17046 H561.4388461962891 a14.17044,14.17044 0 0 0 14.1704,-14.17046 V97.62034451934812 A14.17039,14.17039 0 0 0 561.4388461962891,83.44994451934815 z" fill="#3f3d56" class="selected" id="svg_43"/><path d="M561.4388461962891,83.44994451934815 H351.94912619628906 v-4.31776 H256.9583361962891 v4.31776 H46.605066196289044 a14.17039,14.17039 0 0 0 -14.1704,14.1704 V384.4761845193482 a14.17044,14.17044 0 0 0 14.1704,14.17046 H561.4388461962891 a14.17044,14.17044 0 0 0 14.1704,-14.17046 V97.62034451934812 A14.17039,14.17039 0 0 0 561.4388461962891,83.44994451934815 z" fill="#3f3d56" class="selected" id="svg_44"/><rect x="51.4371337890625" y="108.48896026611328" width="505.16998291015625" height="284.98004150390625" opacity="0.2" class="" id="svg_45"/><rect x="51.4371337890625" y="108.48896026611328" width="505.16998291015625" height="284.98004150390625" opacity="0.2" class="" id="svg_46"/><path d="M561.4388461962891,83.44994451934815 H351.94912619628906 v-4.31776 H256.9583361962891 v4.31776 H46.605066196289044 a14.17039,14.17039 0 0 0 -14.1704,14.1704 V384.4761845193482 a14.17044,14.17044 0 0 0 14.1704,14.17046 H561.4388461962891 a14.17044,14.17044 0 0 0 14.1704,-14.17046 V97.62034451934812 A14.17039,14.17039 0 0 0 561.4388461962891,83.44994451934815 z" fill="#3f3d56" class="selected" id="svg_24"/><rect x="51.4371337890625" y="108.48896026611328" width="505.16998291015625" height="284.98004150390625" opacity="0.2" class="" id="svg_25"/><circle cx="303.59014892578125" cy="95.5396728515625" r="5.1813201904296875" fill="#0098c8" class="" id="svg_26"/><path d="M373.04246619628907,214.96227451934817 V193.87841451934815 a25.86891,25.86891 0 0 0 -25.86893,-25.86893 H326.089676196289 c0,-2.846 -9.14594,-5.17779 -20.76758,-5.39878 V137.18481451934815 a14.447,14.447 0 1 0 -3.6117500000000002,0 v25.42589 c-11.62164,0.22100000000000006 -20.76758,2.55274 -20.76758,5.39878 H256.247146196289 a25.86891,25.86891 0 0 0 -25.86893,25.86893 v21.08386 c-2.99209,0 -5.41763,10.10647 -5.41763,22.57346 s2.42554,22.57346 5.41763,22.57346 v24.69561 a25.86891,25.86891 0 0 0 25.86893,25.86893 h90.92639 a25.86891,25.86891 0 0 0 25.86893,-25.86893 V260.10919451934814 c2.99209,0 5.41763,-10.10648 5.41763,-22.57346 S376.03455619628903,214.96227451934817 373.04246619628907,214.96227451934817 z" fill="#0098c8" class="" id="svg_27"/><path d="M261.42652826660157,176.1358786795044 h80.56769 a22.92181,22.92181 0 0 1 22.92181,22.92181 V279.6254386795044 a22.92181,22.92181 0 0 1 -22.92181,22.92181 H261.42646826660155 a22.92181,22.92181 0 0 1 -22.92181,-22.92181 V199.05774867950439 A22.92188,22.92188 0 0 1 261.42652826660157,176.1358786795044 z" fill="#3f3d56" class="" id="svg_28"/><path d="M272.8163161962891,236.18132451934815 a16.27123,16.27123 0 0 1 -16.25289,-16.25289 a0.9029400000000002,0.9029400000000002 0 1 1 1.8058800000000002,0 a14.447,14.447 0 1 0 28.894,0 a0.9029400000000002,0.9029400000000002 0 0 1 1.8058800000000002,0 A16.27123,16.27123 0 0 1 272.8163161962891,236.18132451934815 z" fill="#0098c8" class="" id="svg_29"/><path d="M301.71034619628904,266.88122451934817 a12.65534,12.65534 0 0 1 -12.64114,-12.64113 a0.9029400000000002,0.9029400000000002 0 0 1 1.8058800000000002,0 a10.83526,10.83526 0 0 0 21.67052,0 a0.90293,0.90293 0 1 1 1.80587,0 A12.65533,12.65533 0 0 1 301.71034619628904,266.88122451934817 z" fill="#0098c8" class="" id="svg_30"/><path d="M330.6043661962891,236.18132451934815 a16.27123,16.27123 0 0 1 -16.25289,-16.25289 a0.9029400000000002,0.9029400000000002 0 1 1 1.8058800000000002,0 a14.447,14.447 0 1 0 28.894,0 a0.9029400000000002,0.9029400000000002 0 0 1 1.8058800000000002,0 A16.27151,16.27151 0 0 1 330.6043661962891,236.18132451934815 z" fill="#0098c8" class="" id="svg_31"/><circle cx="272.81634521484375" cy="220.83135986328125" r="8.126440048217773" fill="#0098c8" class="" id="svg_32"/><circle cx="330.6043701171875" cy="220.83135986328125" r="8.126440048217773" fill="#0098c8" class="" id="svg_33"/><ellipse cx="301.7103271484375" cy="258.7547912597656" rx="7.223509788513184" ry="3.6117498874664307" fill="#0098c8" class="" id="svg_34"/><path d="M589.793556196289,388.2839945193482 H540.4914461962891 v-3.55219 a0.7042900000000002,0.7042900000000002 0 0 0 -0.7043200000000002,-0.70431 H522.8835461962891 a0.7042900000000002,0.7042900000000002 0 0 0 -0.7043200000000002,0.70431 v3.55219 H511.614486196289 v-3.55219 a0.7042900000000002,0.7042900000000002 0 0 0 -0.70431,-0.70431 H494.00658619628905 a0.70428,0.70428 0 0 0 -0.70431,0.70431 v3.55219 H482.73753619628906 v-3.55219 a0.7042900000000002,0.7042900000000002 0 0 0 -0.7043200000000002,-0.70431 H465.1296361962891 a0.7042900000000002,0.7042900000000002 0 0 0 -0.7043200000000002,0.70431 v3.55219 H453.8605761962891 v-3.55219 a0.70428,0.70428 0 0 0 -0.70431,-0.70431 H436.2526861962891 a0.7042900000000002,0.7042900000000002 0 0 0 -0.7043200000000002,0.70431 v3.55219 H424.98362619628904 v-3.55219 a0.7042900000000002,0.7042900000000002 0 0 0 -0.7043200000000002,-0.70431 H407.37572619628907 a0.70428,0.70428 0 0 0 -0.70431,0.70431 v3.55219 H396.1066761962891 v-3.55219 a0.7042900000000002,0.7042900000000002 0 0 0 -0.7043200000000002,-0.70431 H378.4987761962891 a0.7042900000000002,0.7042900000000002 0 0 0 -0.7043200000000002,0.70431 v3.55219 H367.229716196289 v-3.55219 a0.70428,0.70428 0 0 0 -0.70431,-0.70431 H234.11397619628906 a0.7042900000000002,0.7042900000000002 0 0 0 -0.7043200000000002,0.70431 v3.55219 H222.84497619628905 v-3.55219 a0.70428,0.70428 0 0 0 -0.70431,-0.70431 H205.23704619628904 a0.7042900000000002,0.7042900000000002 0 0 0 -0.70431,0.70431 v3.55219 H193.9679761962891 v-3.55219 a0.7042900000000002,0.7042900000000002 0 0 0 -0.7043200000000002,-0.70431 H176.36009619628908 a0.7042900000000002,0.7042900000000002 0 0 0 -0.7043200000000002,0.70431 v3.55219 H165.09104619628908 v-3.55219 a0.7042900000000002,0.7042900000000002 0 0 0 -0.7043200000000002,-0.70431 H147.48314619628906 a0.7042900000000002,0.7042900000000002 0 0 0 -0.7043200000000002,0.70431 v3.55219 H136.2140861962891 v-3.55219 a0.7042900000000002,0.7042900000000002 0 0 0 -0.70431,-0.70431 H118.60618619628906 a0.70428,0.70428 0 0 0 -0.70431,0.70431 v3.55219 H107.33713619628907 v-3.55219 a0.7042900000000002,0.7042900000000002 0 0 0 -0.7043200000000002,-0.70431 H89.72923619628904 a0.7042900000000002,0.7042900000000002 0 0 0 -0.7043200000000002,0.70431 v3.55219 H78.46017619628907 v-3.55219 a0.70428,0.70428 0 0 0 -0.70431,-0.70431 H60.85228619628907 a0.7042900000000002,0.7042900000000002 0 0 0 -0.7043200000000002,0.70431 v3.55219 H27.749436196289082 A16.90359,16.90359 0 0 0 10.845846196289074,405.1876245193481 v7.6434 a16.90359,16.90359 0 0 0 16.90359,16.90354 H589.793556196289 a16.90358,16.90358 0 0 0 16.90358,-16.90354 V405.1876245193481 A16.90359,16.90359 0 0 0 589.793556196289,388.2839945193482 z" fill="#3f3d56" class="" id="svg_35"/><rect x="128.71034240722656" y="309.5446472167969" width="337" height="2" fill="#0098c8" class="" id="svg_36"/><path d="M152.71034619628904,308.5446245193482 h-83 a555.42428,555.42428 0 0 0 0,-94 h83 C148.14051619628907,246.73907451934815 147.87324619628907,278.12274451934815 152.71034619628904,308.5446245193482 z" fill="#d0cde1" class="" id="svg_37"/><rect x="81.71034240722656" y="233.5446319580078" width="60" height="4" fill="#3f3d56" class="" id="svg_38"/><rect x="81.71034240722656" y="246.5446319580078" width="60" height="4" fill="#3f3d56" class="" id="svg_39"/><rect x="81.71034240722656" y="259.5446472167969" width="60" height="4" fill="#3f3d56" class="" id="svg_40"/><rect x="81.71034240722656" y="272.5446472167969" width="60" height="4" fill="#3f3d56" class="" id="svg_41"/><rect x="81.71034240722656" y="285.5446472167969" width="60" height="4" fill="#3f3d56" class="" id="svg_42"/><rect x="51.4371337890625" y="108.48896026611328" width="505.16998291015625" height="284.98004150390625" opacity="0.2" id="svg_5" class=""/><circle cx="303.59014892578125" cy="95.5396728515625" r="5.1813201904296875" fill="#0098c8" id="svg_6" class=""/><rect x="111.50023651123047" y="436.947998046875" width="732.99951171875" height="2" fill="#3f3d56" id="svg_7" class=""/><path d="M373.04246619628907,214.96227451934817 V193.87841451934815 a25.86891,25.86891 0 0 0 -25.86893,-25.86893 H326.089676196289 c0,-2.846 -9.14594,-5.17779 -20.76758,-5.39878 V137.18481451934815 a14.447,14.447 0 1 0 -3.6117500000000002,0 v25.42589 c-11.62164,0.22100000000000006 -20.76758,2.55274 -20.76758,5.39878 H256.247146196289 a25.86891,25.86891 0 0 0 -25.86893,25.86893 v21.08386 c-2.99209,0 -5.41763,10.10647 -5.41763,22.57346 s2.42554,22.57346 5.41763,22.57346 v24.69561 a25.86891,25.86891 0 0 0 25.86893,25.86893 h90.92639 a25.86891,25.86891 0 0 0 25.86893,-25.86893 V260.10919451934814 c2.99209,0 5.41763,-10.10648 5.41763,-22.57346 S376.03455619628903,214.96227451934817 373.04246619628907,214.96227451934817 z" fill="#0098c8" id="svg_8" class=""/><path d="M261.42652826660157,176.1358786795044 h80.56769 a22.92181,22.92181 0 0 1 22.92181,22.92181 V279.6254386795044 a22.92181,22.92181 0 0 1 -22.92181,22.92181 H261.42646826660155 a22.92181,22.92181 0 0 1 -22.92181,-22.92181 V199.05774867950439 A22.92188,22.92188 0 0 1 261.42652826660157,176.1358786795044 z" fill="#3f3d56" id="svg_9" class=""/><path d="M272.8163161962891,236.18132451934815 a16.27123,16.27123 0 0 1 -16.25289,-16.25289 a0.9029400000000002,0.9029400000000002 0 1 1 1.8058800000000002,0 a14.447,14.447 0 1 0 28.894,0 a0.9029400000000002,0.9029400000000002 0 0 1 1.8058800000000002,0 A16.27123,16.27123 0 0 1 272.8163161962891,236.18132451934815 z" fill="#0098c8" id="svg_10" class=""/><path d="M301.71034619628904,266.88122451934817 a12.65534,12.65534 0 0 1 -12.64114,-12.64113 a0.9029400000000002,0.9029400000000002 0 0 1 1.8058800000000002,0 a10.83526,10.83526 0 0 0 21.67052,0 a0.90293,0.90293 0 1 1 1.80587,0 A12.65533,12.65533 0 0 1 301.71034619628904,266.88122451934817 z" fill="#0098c8" id="svg_11" class=""/><path d="M330.6043661962891,236.18132451934815 a16.27123,16.27123 0 0 1 -16.25289,-16.25289 a0.9029400000000002,0.9029400000000002 0 1 1 1.8058800000000002,0 a14.447,14.447 0 1 0 28.894,0 a0.9029400000000002,0.9029400000000002 0 0 1 1.8058800000000002,0 A16.27151,16.27151 0 0 1 330.6043661962891,236.18132451934815 z" fill="#0098c8" id="svg_12" class=""/><circle cx="272.81634521484375" cy="220.83135986328125" r="8.126440048217773" fill="#0098c8" id="svg_13" class=""/><circle cx="330.6043701171875" cy="220.83135986328125" r="8.126440048217773" fill="#0098c8" id="svg_14" class=""/><ellipse cx="301.7103271484375" cy="258.7547912597656" rx="7.223509788513184" ry="3.6117498874664307" fill="#0098c8" id="svg_15" class=""/><path d="M589.793556196289,388.2839945193482 H540.4914461962891 v-3.55219 a0.7042900000000002,0.7042900000000002 0 0 0 -0.7043200000000002,-0.70431 H522.8835461962891 a0.7042900000000002,0.7042900000000002 0 0 0 -0.7043200000000002,0.70431 v3.55219 H511.614486196289 v-3.55219 a0.7042900000000002,0.7042900000000002 0 0 0 -0.70431,-0.70431 H494.00658619628905 a0.70428,0.70428 0 0 0 -0.70431,0.70431 v3.55219 H482.73753619628906 v-3.55219 a0.7042900000000002,0.7042900000000002 0 0 0 -0.7043200000000002,-0.70431 H465.1296361962891 a0.7042900000000002,0.7042900000000002 0 0 0 -0.7043200000000002,0.70431 v3.55219 H453.8605761962891 v-3.55219 a0.70428,0.70428 0 0 0 -0.70431,-0.70431 H436.2526861962891 a0.7042900000000002,0.7042900000000002 0 0 0 -0.7043200000000002,0.70431 v3.55219 H424.98362619628904 v-3.55219 a0.7042900000000002,0.7042900000000002 0 0 0 -0.7043200000000002,-0.70431 H407.37572619628907 a0.70428,0.70428 0 0 0 -0.70431,0.70431 v3.55219 H396.1066761962891 v-3.55219 a0.7042900000000002,0.7042900000000002 0 0 0 -0.7043200000000002,-0.70431 H378.4987761962891 a0.7042900000000002,0.7042900000000002 0 0 0 -0.7043200000000002,0.70431 v3.55219 H367.229716196289 v-3.55219 a0.70428,0.70428 0 0 0 -0.70431,-0.70431 H234.11397619628906 a0.7042900000000002,0.7042900000000002 0 0 0 -0.7043200000000002,0.70431 v3.55219 H222.84497619628905 v-3.55219 a0.70428,0.70428 0 0 0 -0.70431,-0.70431 H205.23704619628904 a0.7042900000000002,0.7042900000000002 0 0 0 -0.70431,0.70431 v3.55219 H193.9679761962891 v-3.55219 a0.7042900000000002,0.7042900000000002 0 0 0 -0.7043200000000002,-0.70431 H176.36009619628908 a0.7042900000000002,0.7042900000000002 0 0 0 -0.7043200000000002,0.70431 v3.55219 H165.09104619628908 v-3.55219 a0.7042900000000002,0.7042900000000002 0 0 0 -0.7043200000000002,-0.70431 H147.48314619628906 a0.7042900000000002,0.7042900000000002 0 0 0 -0.7043200000000002,0.70431 v3.55219 H136.2140861962891 v-3.55219 a0.7042900000000002,0.7042900000000002 0 0 0 -0.70431,-0.70431 H118.60618619628906 a0.70428,0.70428 0 0 0 -0.70431,0.70431 v3.55219 H107.33713619628907 v-3.55219 a0.7042900000000002,0.7042900000000002 0 0 0 -0.7043200000000002,-0.70431 H89.72923619628904 a0.7042900000000002,0.7042900000000002 0 0 0 -0.7043200000000002,0.70431 v3.55219 H78.46017619628907 v-3.55219 a0.70428,0.70428 0 0 0 -0.70431,-0.70431 H60.85228619628907 a0.7042900000000002,0.7042900000000002 0 0 0 -0.7043200000000002,0.70431 v3.55219 H27.749436196289082 A16.90359,16.90359 0 0 0 10.845846196289074,405.1876245193481 v7.6434 a16.90359,16.90359 0 0 0 16.90359,16.90354 H589.793556196289 a16.90358,16.90358 0 0 0 16.90358,-16.90354 V405.1876245193481 A16.90359,16.90359 0 0 0 589.793556196289,388.2839945193482 z" fill="#3f3d56" id="svg_16" class=""/><rect x="128.71034240722656" y="309.5446472167969" width="337" height="2" fill="#0098c8" id="svg_17" class=""/><path d="M152.71034619628904,308.5446245193482 h-83 a555.42428,555.42428 0 0 0 0,-94 h83 C148.14051619628907,246.73907451934815 147.87324619628907,278.12274451934815 152.71034619628904,308.5446245193482 z" fill="#d0cde1" id="svg_18" class=""/><rect x="81.71034240722656" y="233.5446319580078" width="60" height="4" fill="#3f3d56" id="svg_19" class=""/><rect x="81.71034240722656" y="246.5446319580078" width="60" height="4" fill="#3f3d56" id="svg_20" class=""/><rect x="81.71034240722656" y="259.5446472167969" width="60" height="4" fill="#3f3d56" id="svg_21" class=""/><rect x="81.71034240722656" y="272.5446472167969" width="60" height="4" fill="#3f3d56" id="svg_22" class=""/><rect x="81.71034240722656" y="285.5446472167969" width="60" height="4" fill="#3f3d56" id="svg_23" class=""/></g></svg>