<svg xmlns="http://www.w3.org/2000/svg" data-name="Layer 1" width="960" height="794.981201171875"><rect id="backgroundrect" width="100%" height="100%" x="0" y="0" fill="none" stroke="none"/><title>my password</title><g class="currentLayer" style=""><title>Layer 1</title><path d="M848.81006,454.4423291418457 c-5.27,45.15 -16.22,81.4 -31.25,110.31 c-20.00006,38.52 -54.21008,54.04 -84.77008,70.28 a193.27677,193.27677 0 0 1 -27.46,11.94 c-55.61,19.3 -117.85,14.18 -166.74,3.99 a657.297,657.297 0 0 0 -104.09,-13.16 q-14.97,-0.6749300000000001 -29.97,-0.6700000000000002 c-15.42,0.020000000000000004 -293.07,5.29 -360.67,-131.57 c-16.69,-33.76 -28.13,-75 -32.24,-125.27 c-11.63,-142.12 52.29,-235.46 134.74,-296.47 c155.97,-115.41 369.76,-110.57 523.43,7.88 C772.15,170.6023691418457 867.99,290.0123391418457 848.81006,454.4423291418457 z" fill="#f2f2f2" id="svg_1" class=""/><path d="M848.81006,454.4423291418457 c-5.27,45.15 -16.22,81.4 -31.25,110.31 c-20.00006,38.52 -54.21008,54.04 -84.77008,70.28 a193.27677,193.27677 0 0 1 -27.46,11.94 c-55.61,19.3 -117.85,14.18 -166.74,3.99 a657.297,657.297 0 0 0 -104.09,-13.16 q-14.97,-0.6749300000000001 -29.97,-0.6700000000000002 c-15.42,0.020000000000000004 -293.07,5.29 -360.67,-131.57 c-16.69,-33.76 -28.13,-75 -32.24,-125.27 c-11.63,-142.12 52.29,-235.46 134.74,-296.47 c155.97,-115.41 369.76,-110.57 523.43,7.88 C772.15,170.6023691418457 867.99,290.0123391418457 848.81006,454.4423291418457 z" fill="#f2f2f2" class="" id="svg_42"/><path d="M848.81006,454.4423291418457 c-5.27,45.15 -16.22,81.4 -31.25,110.31 c-20.00006,38.52 -54.21008,54.04 -84.77008,70.28 a193.27677,193.27677 0 0 1 -27.46,11.94 c-55.61,19.3 -117.85,14.18 -166.74,3.99 a657.297,657.297 0 0 0 -104.09,-13.16 q-14.97,-0.6749300000000001 -29.97,-0.6700000000000002 c-15.42,0.020000000000000004 -293.07,5.29 -360.67,-131.57 c-16.69,-33.76 -28.13,-75 -32.24,-125.27 c-11.63,-142.12 52.29,-235.46 134.74,-296.47 c155.97,-115.41 369.76,-110.57 523.43,7.88 C772.15,170.6023691418457 867.99,290.0123391418457 848.81006,454.4423291418457 z" fill="#f2f2f2" class="" id="svg_44"/><path d="M300,413.2971391418457 c0,112.96734000000001 -67.15729,152.41131 -150,152.41131 s-150,-39.444 -150,-152.41131 S150,156.6175891418457 150,156.6175891418457 S300,300.3298091418457 300,413.2971391418457 z" fill="#0098c8" id="svg_2"/><polygon points="144.536 548.428 146.072 453.884 210.006 336.921 146.313 439.053 147.003 396.543 191.066 311.921 147.186 385.293 147.186 385.293 148.428 308.836 195.612 241.466 148.623 296.813 149.399 156.618 144.522 342.211 144.923 334.555 96.951 261.126 144.154 349.252 139.684 434.642 139.551 432.375 84.248 355.102 139.383 440.382 138.824 451.061 138.724 451.221 138.77 452.098 127.43 668.739 142.581 668.739 144.399 556.84 199.399 471.769 144.536 548.428" fill="#3f3d56" id="svg_3"/><path d="M960,420.2971391418457 c0,112.96734000000001 -67.15729,152.41131 -150,152.41131 s-150,-39.444 -150,-152.41131 S810,163.6175891418457 810,163.6175891418457 S960,307.3298091418457 960,420.2971391418457 z" fill="#0098c8" id="svg_4"/><polygon points="804.536 555.428 806.072 460.884 870.006 343.921 806.313 446.053 807.003 403.543 851.066 318.921 807.186 392.293 807.186 392.293 808.428 315.836 855.612 248.466 808.623 303.813 809.399 163.618 804.522 349.211 804.923 341.555 756.951 268.126 804.154 356.252 799.684 441.642 799.551 439.375 744.248 362.102 799.383 447.382 798.824 458.061 798.724 458.221 798.77 459.098 787.43 675.739 802.581 675.739 804.399 563.84 859.399 478.769 804.536 555.428" fill="#3f3d56" id="svg_5"/><path d="M648,324.3549191418457 c0,123.51095 -73.42530000000001,166.63636 -164,166.63636 S320,447.8658691418457 320,324.3549191418457 S484,43.7185891418457 484,43.7185891418457 S648,200.84395914184572 648,324.3549191418457 z" fill="#0098c8" id="svg_6" class=""/><polygon points="478.026 472.098 479.705 368.73 549.606 240.85 479.969 352.515 480.724 306.037 528.899 213.517 480.923 293.737 480.923 293.737 482.281 210.144 533.869 136.486 482.495 196.999 483.343 43.719 478.011 246.634 478.449 238.263 426 157.981 477.608 254.332 472.721 347.692 472.576 345.213 412.111 260.729 472.393 353.968 471.781 365.643 471.672 365.819 471.722 366.777 459.323 603.638 475.889 603.638 477.876 481.295 538.01 388.284 478.026 472.098" fill="#3f3d56" id="svg_7"/><path d="M832,685.9811791418457 c0,26.50967 -173.71352,109 -388,109 s-388,-82.49033 -388,-109 s159.71352,-86 374,-86 S832,659.4715091418457 832,685.9811791418457 z" fill="#3f3d56" id="svg_8"/><path d="M832,685.9811791418457 c0,26.50967 -173.71352,109 -388,109 s-388,-82.49033 -388,-109 s159.71352,-86 374,-86 S832,659.4715091418457 832,685.9811791418457 z" opacity="0.1" id="svg_9" class=""/><path d="M832,685.9811791418457 c0,26.50967 -173.71352,48 -388,48 s-388,-21.49033 -388,-48 s159.71352,-86 374,-86 S832,659.4715091418457 832,685.9811791418457 z" fill="#3f3d56" id="svg_10"/><path d="M574.42886,553.0617191418457 c0,38.029 23.85743,68.80166 53.34062,68.80166 " fill="#3f3d56" id="svg_11"/><path d="M627.76948,621.8633791418457 c0,-38.45634 26.6235,-69.57472 59.525,-69.57472 " fill="#0098c8" id="svg_12"/><path d="M593.75517,556.5091091418457 c0,36.12355 15.21343,65.35427 34.01431,65.35427 " fill="#0098c8" id="svg_13"/><path d="M627.76948,621.8633791418457 c0,-49.13865 30.77261,-88.901 68.80166,-88.901 " fill="#3f3d56" id="svg_14"/><path d="M616.548,622.3484391418457 s7.56457,-0.233 9.84434,-1.8563800000000001 s11.63623,-3.56182 12.20179,-0.95825 s11.36815,12.949 2.82778,13.01787 s-19.844,-1.3303 -22.11941,-2.71632 S616.548,622.3484391418457 616.548,622.3484391418457 z" fill="#a8a8a8" id="svg_15"/><path d="M641.57431,631.6453591418457 c-8.54037,0.06891000000000001 -19.844,-1.3302800000000001 -22.1194,-2.71631 c-1.73283,-1.05554 -2.42334,-4.843 -2.65438,-6.59046 c-0.16000000000000003,0.006880000000000002 -0.25254,0.009840000000000003 -0.25254,0.009840000000000003 s0.47912000000000005,6.10089 2.75451,7.4869200000000005 s13.579,2.78522 22.1194,2.71631 c2.46527,-0.019880000000000002 3.31682,-0.8970000000000001 3.27006,-2.19605 C644.34948,631.1404691418458 643.40924,631.6305891418457 641.57431,631.6453591418457 z" opacity="0.2" id="svg_16"/><ellipse cx="449" cy="680.981201171875" rx="132" ry="21" opacity="0.1" id="svg_17"/><rect x="1087.6363525390625" y="624.8902921676636" width="13" height="30" fill="#ffb9b9" id="svg_18" class=""/><rect x="1053.4545288085938" y="343.5266342163086" width="50" height="90" fill="#ff6584" id="svg_19" class=""/><polygon points="1154.7210083007812,421.13019371032715 1156.4509887695312,434.9751949310303 1110.8800048828125,448.8191890716553 1105.1109924316406,423.43817710876465 1154.7210083007812,421.13019371032715 " fill="#ffb9b9" id="svg_20" class=""/><path d="M1070.8650425390624,272.42297515869143 s-1.15371,10.38336 -3.46112,10.38336 s-10.38337,4.038 -10.38337,4.038 l-2.30741,10.96021 l16.1519,9.80651 l26.53526,-2.8842600000000003 l7.49909,-11.53707 l-7.49909,-7.4991 s-6.34539,-13.84448 -4.038,-16.72875 S1070.8650425390624,272.42297515869143 1070.8650425390624,272.42297515869143 z" fill="#ffb9b9" id="svg_21" class=""/><path d="M1048.1377476171874,184.24116287231448 s-1.15371,10.38336 -3.46112,10.38336 s-10.38337,4.038 -10.38337,4.038 l-2.30741,10.96021 l16.1519,9.80651 l26.53526,-2.8842600000000003 l7.49909,-11.53707 l-7.49909,-7.4991 s-6.34539,-13.84448 -4.038,-16.72875 S1048.1377476171874,184.24116287231448 1048.1377476171874,184.24116287231448 z" opacity="0.1" id="svg_22" class=""/><path d="M1076.940176269531,594.5299890997314 s-5.19168,34.61121 -11.53707,36.91862 s24.22784,6.34539 24.22784,6.34539 l2.30742,-12.69078 s0.5768500000000002,-23.07414 2.88427,-26.53526 S1076.940176269531,594.5299890997314 1076.940176269531,594.5299890997314 z" fill="#ffb9b9" id="svg_23" class=""/><path d="M1073.9610322242356,335.0262921641922 s83.64375,-14.99819 84.22061,-17.882460000000002 s17.3056,21.92044 6.92224,70.37613 S1128.7621122242356,550.1926821641922 1128.7621122242356,550.1926821641922 s-26.53526,8.076 -25.95841,1.73056 s9.22966,-116.52441 9.22966,-116.52441 L1106.2648222242356,388.6736821641922 l-9.80651,5.76853 L1055.5017122242357,475.2016821641922 L1034.7349722242357,545.0009721641921 s-26.53526,4.61483 -22.49729,-5.19168 s17.30561,-85.95118 17.30561,-85.95118 l36.34177,-107.29475 S1064.7313722242357,335.0262921641922 1073.9610322242356,335.0262921641922 z" fill="#2f2e41" id="svg_24" class=""/><circle cx="1110.4707336425781" cy="126.89173126220703" r="24.22784996032715" fill="#ffb9b9" id="svg_25" class=""/><path d="M1164.65475015625,94.44927507446289 s-11.53707,10.96022 -38.64919,8.07595 s7.4991,61.72333 7.4991,61.72333 L1144.46487015625,229.43304507446288 s48.4557,-5.76853 50.18626,-16.72875 S1164.65475015625,94.44927507446289 1164.65475015625,94.44927507446289 z" fill="#f2f2f2" id="svg_26" class=""/><path d="M1074.0268265843583,218.89987710815427 s-13.84449,-6.92224 -19.03617,-25.95841 s-9.80651,-38.64918 -12.69078,-38.07233 c-2.43527,0.48705000000000015 -25.021,9.1988 -32.34111,15.02428 c-1.3496100000000002,1.074 -2.1803,2.05 -2.2701000000000002,2.85818 c-0.5768500000000003,5.19168 20.76673,57.1085 20.76673,57.1085 s16.72875,37.49547 9.80651,49.6094 s-7.4991,27.689 5.19168,26.53526 s54.80108,-3.46112 49.03255,-35.764920000000004 c0,0 10.96021,22.49729 41.53345,6.34539 c0,0 18.45931,-2.88427 17.882460000000002,-9.22966 S1122.4825565843582,206.2090971081543 1122.4825565843582,206.2090971081543 s-4.61483,-24.22785 4.038,-33.4575 l-19.613,-23.07414 s-4.61483,-6.92224 -9.22966,-3.46112 s-14.99819,9.22965 -16.72875,9.80651 s-2.86829,-2.07331 -2.86829,-2.07331 a50.15409,50.15409 0 0 0 -4.63081,26.878 C1075.1805565843583,195.82573710815427 1074.0268265843583,218.89987710815427 1074.0268265843583,218.89987710815427 z" fill="#2f2e41" id="svg_27" class=""/><path d="M1065.0343837304688,575.4354591418457 s-1.28794,-4.038 -8.71992,0 c0,0 2.37453,-12.69078 -5.70142,-12.69078 S1039.6528237304688,577.7428691418457 1039.6528237304688,577.7428691418457 s-2.30741,9.80651 -17.882460000000002,13.84449 s-3.46112,17.88245 7.4991,17.88245 s25.38155,-8.652800000000001 25.38155,-8.652800000000001 s29.99639,0.57686 30.57324,-5.19168 s-2.88427,-23.07414 -5.19168,-23.07414 s-6.92224,8.076 -6.92224,8.076 z" fill="#2f2e41" id="svg_28" class=""/><path d="M1098.5540025390624,639.8290436439514 s-8.07594,-8.652800000000001 -12.69077,5.76853 s-8.076,20.18988 -5.19168,22.49729 s5.19168,1.15371 4.038,5.76854 s3.46112,14.42133 13.84448,14.42133 s13.26764,-7.49909 12.69078,-12.69077 s-5.19168,-11.53707 -5.19168,-11.53707 l-4.61483,-16.1519 z" fill="#2f2e41" id="svg_29" class=""/><path d="M1143.2163138867186,397.70588761352536 l-30.57323,10.38336 s-27.689,16.1519 -15.575050000000001,19.613 s22.49729,-10.38336 22.49729,-10.38336 l26.53526,-6.92224 z" fill="#ffb9b9" id="svg_30" class=""/><path d="M1129.4407576171875,36.699453643951415 c-3.6299,2.48667 -6.51953,5.89268 -9.267,9.32942 c-5.58253,6.98308 -11.05227,15.323 -9.6768,24.15683 c0.5224099999999997,3.35517 2.01351,6.47776 2.853,9.76793 c1.133,4.44034 1.05834,9.08738 0.9764999999999997,13.66925 a18.4591,18.4591 0 0 1 -0.7150000000000003,5.76366 a37.99064,37.99064 0 0 1 -2.84235,5.25447 c-2.77828,5.17472 -2.8464400000000003,11.3233 -2.84876,17.19668 a14.66559,14.66559 0 0 0 0.7908400000000003,5.83156 c0.7586000000000006,1.766 2.17085,3.1506600000000002 3.342,4.67464 a20.16514,20.16514 0 0 1 3.1082,18.26869 a7.91386,7.91386 0 0 0 7.19,-4.53355 a10.02364,10.02364 0 0 1 -2.56309,8.15237 c6.60337,-1.9624000000000001 13.68191,-5.27107 16.0922,-11.724450000000001 a24.84682,24.84682 0 0 0 1.1850800000000001,-6.77594 c1.28208,-16.18765 2.0142,-32.98059 -3.79134,-48.14566 c-1.85741,-4.85187 -4.38532,-9.54824 -5.008,-14.706 s1.28076,-11.11815 6.01928,-13.24818 a5.46383,5.46383 0 0 0 1.6502000000000003,3.476 c1.05467,0.78308 3.00509,0.29190000000000016 3.02418,-1.02156 l2.2888100000000002,3.18683 a5.59164,5.59164 0 0 0 2.17351,-1.8961000000000001 l1.5691000000000002,1.9208500000000002 l3.3374,-2.42766 l2.8978400000000004,3.12519 a6.16615,6.16615 0 0 0 2.54433,-2.7689000000000004 c0.6228200000000006,0.93147 1.39371,1.95519 2.50968,2.056 c2.43009,0.21961000000000008 2.93162,-3.63681 5.05451,-4.8397000000000014 a3.58263,3.58263 0 0 1 4.47152,1.35532 a7.29918,7.29918 0 0 1 0.90012,4.94257 c-0.8785200000000003,7.93214 -7.6465700000000005,15.17 -5.63989,22.89424 c1.12838,4.34341 4.9287600000000005,7.8261400000000005 5.2154300000000005,12.30455 c0.22910000000000008,3.579 -1.8747500000000001,6.96477 -1.8426,10.551 c0.03768000000000001,4.20274 2.94145,7.77244 5.77615,10.87548 q7.56762,8.284 15.93063,15.79162 l-1.72232,-3.01322 a5.59237,5.59237 0 0 1 4.38587,1.613 c0.4950800000000003,-1.7320000000000002 -0.3255800000000003,-3.53665 -1.10006,-5.163 c-4.63767,-9.73871 -8.38185,-20.10833 -8.94113,-30.88042 c-0.7774,-14.97342 4.60637,-30.18 1.19448,-44.78024 a38.65541,38.65541 0 0 0 -13.02863,-20.8277 c-3.1557,-2.5977200000000007 -5.54843,-4.15371 -9.635,-4.44 a72.72067,72.72067 0 0 0 -13.72491,0.10768000000000004 A31.41756,31.41756 0 0 0 1129.4407576171875,36.699453643951415 z" fill="#ff6584" id="svg_31" class=""/><path d="M1052.2926188085937,363.8906772766113 s6.34539,0.57686 9.22965,0 s6.92225,-3.46112 6.92225,-3.46112 l21.92043,-16.1519 l-19.03617,2.88427 s3.46112,-26.53526 2.30742,-27.11212 s55.95479,-11.53707 54.80108,6.34539 s-33.4575,53.07053 -51.91681,59.99277 L1064.4065288085937,388.1185172766113 z" fill="#2f2e41" id="svg_32" class=""/><rect x="1054.272705078125" y="222.9451446533203" width="272" height="64" fill="#fff" id="svg_33" class=""/><rect x="967.8636474609375" y="108.354248046875" width="202" height="34" fill="#3f3d56" id="svg_34" class=""/><rect x="700.5909118652344" y="58.3542537689209" width="202" height="34" fill="#3f3d56" class="" id="svg_43"/><path d="M398.44237999999996,508.2445891418457 c-0.08081,-0.8718300000000001 -3.9370000000000003,-1.25983 -9.2279,-1.04151 c3.06592,-4.31744 4.841670000000001,-7.76239 4.15466,-8.30523 c-0.6480700000000001,-0.512 -3.30017,1.70147 -6.5293,5.29632 C386.53467,499.3715891418457 385.82593,495.9905891418457 385,495.9905891418457 c-0.90088,0 -1.66235,4.02258 -1.9126,9.55133 c-4.49316,-3.2312 -8.12158,-5.12756 -8.68017,-4.42059 c-0.53321,0.6750000000000002 1.89526,3.52563 5.75586,6.93579 c-5.09522,0.7559200000000001 -8.68482,1.82294 -8.60547,2.67944 c0.08081,0.8718300000000001 3.9370000000000003,1.25989 9.2279,1.04157 c-3.06592,4.31744 -4.841670000000001,7.76239 -4.15466,8.30517 c0.6480700000000001,0.512 3.30017,-1.70141 6.5293,-5.29626 C383.46533,519.6096691418458 384.17407,522.9905891418457 385,522.9905891418457 c0.90088,0 1.66235,-4.02271 1.9126,-9.55139 c4.49316,3.2312 8.12158,5.12756 8.68017,4.42059 c0.53321,-0.6750000000000002 -1.89526,-3.52563 -5.75586,-6.93579 C394.93213000000003,510.16801914184566 398.52173000000005,509.10105914184567 398.44237999999996,508.2445891418457 z" fill="#fff" id="svg_35" class="" transform="translate(339.0909118652344,-434.5454406738281) "/><path d="M432.44237999999996,508.2445891418457 c-0.08081,-0.8718300000000001 -3.9370000000000003,-1.25983 -9.2279,-1.04151 c3.06592,-4.31744 4.841670000000001,-7.76239 4.15466,-8.30523 c-0.6480700000000001,-0.512 -3.30017,1.70147 -6.5293,5.29632 C420.53467,499.3715891418457 419.82592999999997,495.9905891418457 419,495.9905891418457 c-0.90088,0 -1.66235,4.02258 -1.9126,9.55133 c-4.49316,-3.2312 -8.12158,-5.12756 -8.68017,-4.42059 c-0.53321,0.6750000000000002 1.89526,3.52563 5.75586,6.93579 c-5.09522,0.7559200000000001 -8.68482,1.82294 -8.60547,2.67944 c0.08081,0.8718300000000001 3.9370000000000003,1.25989 9.2279,1.04157 c-3.06592,4.31744 -4.841670000000001,7.76239 -4.15466,8.30517 c0.6480700000000001,0.512 3.30017,-1.70141 6.5293,-5.29626 C417.46533,519.6096691418458 418.17407000000003,522.9905891418457 419,522.9905891418457 c0.90088,0 1.66235,-4.02271 1.9126,-9.55139 c4.49316,3.2312 8.12158,5.12756 8.68017,4.42059 c0.53321,-0.6750000000000002 -1.89526,-3.52563 -5.75586,-6.93579 C428.93213000000003,510.16801914184566 432.52173000000005,509.10105914184567 432.44237999999996,508.2445891418457 z" fill="#fff" id="svg_36" class="" transform="translate(339.0909118652344,-433.6363525390625) "/><path d="M651.8969213255691,172.7900658168793 c-0.08081,-0.8718300000000003 -3.9370000000000003,-1.25983 -9.2279,-1.04151 c3.06592,-4.31744 4.8416700000000015,-7.76239 4.15466,-8.30523 c-0.6480700000000005,-0.512 -3.30017,1.70147 -6.5293,5.29632 C639.9892113255692,163.91706581687924 639.2804713255691,160.53606581687927 638.4545413255692,160.53606581687927 c-0.90088,0 -1.66235,4.02258 -1.9126,9.55133 c-4.49316,-3.2312 -8.12158,-5.12756 -8.68017,-4.42059 c-0.53321,0.6750000000000006 1.89526,3.52563 5.75586,6.93579 c-5.09522,0.7559200000000005 -8.68482,1.82294 -8.60547,2.67944 c0.08081,0.8718300000000003 3.9370000000000003,1.25989 9.2279,1.04157 c-3.06592,4.31744 -4.8416700000000015,7.76239 -4.15466,8.30517 c0.6480700000000005,0.512 3.30017,-1.70141 6.5293,-5.29626 C636.9198713255691,184.15514581687933 637.6286113255692,187.53606581687927 638.4545413255692,187.53606581687927 c0.90088,0 1.66235,-4.02271 1.9126,-9.55139 c4.49316,3.2312 8.12158,5.12756 8.68017,4.42059 c0.53321,-0.6750000000000006 -1.89526,-3.52563 -5.75586,-6.93579 C648.3866713255692,174.71349581687923 651.9762713255692,173.64653581687924 651.8969213255691,172.7900658168793 z" fill="#fff" id="svg_37" class="" transform="translate(157.27272033691406,-100) "/><path d="M883.1696444042968,71.88097219848635 c-0.08081,-0.8718300000000002 -3.9370000000000003,-1.25983 -9.2279,-1.04151 c3.06592,-4.31744 4.8416700000000015,-7.76239 4.15466,-8.30523 c-0.6480700000000003,-0.512 -3.30017,1.70147 -6.5293,5.29632 C871.2619344042969,63.0079721984863 870.5531944042968,59.62697219848633 869.7272644042969,59.62697219848633 c-0.90088,0 -1.66235,4.02258 -1.9126,9.55133 c-4.49316,-3.2312 -8.12158,-5.12756 -8.68017,-4.42059 c-0.53321,0.6750000000000004 1.89526,3.52563 5.75586,6.93579 c-5.09522,0.7559200000000003 -8.68482,1.82294 -8.60547,2.67944 c0.08081,0.8718300000000002 3.9370000000000003,1.25989 9.2279,1.04157 c-3.06592,4.31744 -4.8416700000000015,7.76239 -4.15466,8.30517 c0.6480700000000003,0.512 3.30017,-1.70141 6.5293,-5.29626 C868.1925944042969,83.24605219848638 868.9013344042969,86.62697219848633 869.7272644042969,86.62697219848633 c0.90088,0 1.66235,-4.02271 1.9126,-9.55139 c4.49316,3.2312 8.12158,5.12756 8.68017,4.42059 c0.53321,-0.6750000000000004 -1.89526,-3.52563 -5.75586,-6.93579 C879.6593944042969,73.80440219848629 883.2489944042969,72.73744219848629 883.1696444042968,71.88097219848635 z" fill="#fff" id="svg_38" class="selected" transform="translate(0,0.9090908765792847) "/><path d="M534.44238,508.2445891418457 c-0.08081,-0.8718300000000001 -3.9370000000000003,-1.25983 -9.2279,-1.04151 c3.06592,-4.31744 4.841670000000001,-7.76239 4.15466,-8.30523 c-0.6480700000000001,-0.512 -3.30017,1.70147 -6.5293,5.29632 C522.53467,499.3715891418457 521.82593,495.9905891418457 521,495.9905891418457 c-0.90088,0 -1.66235,4.02258 -1.9126,9.55133 c-4.49316,-3.2312 -8.12158,-5.12756 -8.68017,-4.42059 c-0.53321,0.6750000000000002 1.89526,3.52563 5.75586,6.93579 c-5.09522,0.7559200000000001 -8.68482,1.82294 -8.60547,2.67944 c0.08081,0.8718300000000001 3.9370000000000003,1.25989 9.2279,1.04157 c-3.06592,4.31744 -4.841670000000001,7.76239 -4.15466,8.30517 c0.6480700000000001,0.512 3.30017,-1.70141 6.5293,-5.29626 C519.46533,519.6096691418458 520.17407,522.9905891418457 521,522.9905891418457 c0.90088,0 1.66235,-4.02271 1.9126,-9.55139 c4.49316,3.2312 8.12158,5.12756 8.68017,4.42059 c0.53321,-0.6750000000000002 -1.89526,-3.52563 -5.75586,-6.93579 C530.93213,510.16801914184566 534.52173,509.10105914184567 534.44238,508.2445891418457 z" fill="#fff" id="svg_39" class="" transform="translate(310,-435.45452880859375) "/><path d="M1061.500233886719,468.25740715026853 s-2.88427,38.07233 10.96022,39.80289 s1.15371,-43.264 1.15371,-43.264 z" fill="#ffb9b9" id="svg_40" class=""/><path d="M1080.81750015625,295.234250018425 l-4.038,1.15371 s-16.72875,133.83 -5.76853,159.78842 c0,0 11.53707,-6.34539 17.3056,-5.19168 l9.22966,-109.02531 z" fill="#2f2e41" id="svg_41" class=""/></g></svg>